<svg
   xmlns:dc="http://purl.org/dc/elements/1.1/"
   xmlns:cc="http://creativecommons.org/ns#"
   xmlns:rdf="http://www.w3.org/1999/02/22-rdf-syntax-ns#"
   xmlns:svg="http://www.w3.org/2000/svg"
   xmlns="http://www.w3.org/2000/svg"
   version="1.1"
   viewBox="300 50 200 1100"
   id="svg24">
  <defs
     id="defs28" />
   <filter id="offset">
      <feFlood flood-color="#f00" flood-opacity="0.7" result="c1"></feFlood>
      <feFlood flood-color="#0fa90f" flood-opacity="0.7" result="c2"></feFlood>
      <feFlood flood-color="#00f" flood-opacity="0.7" result="c3"></feFlood>
      <feComposite operator="in" in="c1" in2="SourceAlpha" result="text-c1"></feComposite>
      <feComposite operator="in" in="c2" in2="SourceAlpha" result="text-c2"></feComposite>
      <feComposite operator="in" in="c3" in2="SourceAlpha" result="text-c3"></feComposite>
      <feOffset in="text-c1" dx="-4" dy="3" result="text1"></feOffset>
      <feOffset in="text-c2" dx="0" dy="0" result="text2"></feOffset>
      <feOffset in="text-c3" dx="4" dy="-3" result="text3"></feOffset>
      <feMerge>
         <feMergeNode in="text1"></feMergeNode>
         <feMergeNode in="text2"></feMergeNode>
         <feMergeNode in="text3"></feMergeNode>
      </feMerge>
   </filter>
  <use
     href="#flyer"
     transform="scale(.80, .80)"
     x="62"
     y="69"
     id="use10" />
  <use
     href="#flyer"
     transform="scale(.85, .85)"
     x="42"
     y="48"
     id="use12" />
  <use
     href="#flyer"
     transform="scale(.90, .90)"
     x="27"
     y="30"
     id="use14" />
  <use
     href="#flyer"
     transform="scale(.95, .95)"
     x="13"
     y="15"
     id="use16" />
  <text
     id="flyer"
     font-family="sans-serif"
     x="400"
     y="75"
     writing-mode="tb-rl"
     fill="var(--primary)"
     stroke="black"
     text-orientation="upright">
    <tspan
       font-size="10em"
       style="text-orientation:upright;-webkit-text-orientation:upright;"
       id="tspan18">
            PK
        </tspan>
  </text>
  <g filter="url(#offset)">
  <g
     aria-label="FLYER"
     style="font-family:sans-serif;writing-mode:tb-rl;fill:#ffc0cb;stroke:#000000"
     id="flyer"
     transform="translate(1.66218996047974, 9.67218780517578)">
    <path
       d="m 411.54297,1030.1563 q 3.80859,1.289 7.38281,5.5078 3.63281,4.2187 7.26563,11.6015 l 12.01171,23.9063 h -12.71484 l -11.19141,-22.4414 q -4.33593,-8.7891 -8.4375,-11.6602 -4.04296,-2.8711 -11.07421,-2.8711 h -12.89063 v 36.9727 h -11.83594 v -87.48049 h 26.71875 q 15,0 22.38282,6.26953 7.38281,6.26953 7.38281,18.92576 0,8.2617 -3.86719,13.711 -3.80859,5.4492 -11.13281,7.5586 z m -29.64844,-36.73833 v 31.05473 h 14.88281 q 8.55469,0 12.89063,-3.9258 4.39453,-3.9844 4.39453,-11.6602 0,-7.6758 -4.39453,-11.54295 -4.33594,-3.92578 -12.89063,-3.92578 z m -8.08594,-129.72656 h 55.3125 v 9.96093 h -43.47656 v 25.89844 h 41.66016 v 9.96094 h -41.66016 v 31.69922 h 44.53125 v 9.96093 h -56.36719 z m -10.72265,-120 h 12.71484 l 24.25781,35.97656 24.08203,-35.97656 h 12.71485 l -30.9375,45.82031 v 41.66015 h -11.89453 v -41.66015 z m 15.29297,-120 h 11.83593 v 77.51953 h 42.59766 v 9.96093 h -54.43359 z m -1.17188,-120 h 50.27344 v 9.96093 h -38.4375 v 25.78125 h 34.6875 v 9.96094 h -34.6875 v 41.77734 h -11.83594 z"
       id="path40" />
  </g>
  </g>
</svg>
