<svg xmlns="http://www.w3.org/2000/svg" xmlns:xlink="http://www.w3.org/1999/xlink" version="1.1" x="0px" y="0px" viewBox="-130 -90 1284 1284" enable-background="new 0 0 1024 1024" xml:space="preserve"><title>Link to Home Page</title><path fill="#000000" d="M956.16 320.416l0-459.904c0-28.416-23.232-51.584-51.712-51.584l-180.992 0-25.792 0-25.856 0c-14.336 0-25.792 11.52-25.792 25.664l0 25.856 0 206.784c0 28.544-23.104 51.84-51.84 51.84L439.168 119.072c-28.608 0-51.712-23.232-51.712-51.84l0-206.784 0-25.856c0-14.208-11.584-25.664-25.856-25.664L335.808-191.072 309.888-191.072 129.024-191.072c-28.544 0-51.712 23.104-51.712 51.584L77.312 320.672l450.56 439.36L956.16 320.416z" transform="translate(0, 812) scale(1, -1)"/></svg>