<svg
   width="100%"
   height="100%"
   viewBox="0 0 551.65628 102.9585"
   version="1.1"
   id="svg1"
   inkscape:version="1.3.1 (9b9bdc1480, 2023-11-25, custom)"
   sodipodi:docname="horizontal_pk_flyer_logo.svg"
   xmlns:inkscape="http://www.inkscape.org/namespaces/inkscape"
   xmlns:sodipodi="http://sodipodi.sourceforge.net/DTD/sodipodi-0.dtd"
   xmlns="http://www.w3.org/2000/svg"
   xmlns:svg="http://www.w3.org/2000/svg"
   role="img"
   class="pkflyer-logo" >
   <path
      d="m 518.59656,56.325405 c 2.53906,0.8593 5,2.6953 7.38281,5.5078 2.42187,2.8125 4.84375,6.6796 7.26563,11.6015 l 12.01171,23.906344 H 532.54187 L 521.35046,74.899605 c -2.89062,-5.8594 -5.70312,-9.7461 -8.4375,-11.6602 -2.69531,-1.9141 -6.38671,-2.8711 -11.07421,-2.8711 H 488.94812 V 97.341049 H 477.11218 V 9.8605153 h 26.71875 c 10,0 17.46094,2.0898397 22.38282,6.2695297 4.92187,4.17969 7.38281,10.48826 7.38281,18.92576 0,5.5078 -1.28906,10.0781 -3.86719,13.711 -2.53906,3.6328 -6.25,6.1523 -11.13281,7.5586 z m -29.64844,-36.73833 v 31.05473 h 14.88281 c 5.70313,0 10,-1.3086 12.89063,-3.9258 2.92969,-2.6563 4.39453,-6.543 4.39453,-11.6602 0,-5.1172 -1.46484,-8.96485 -4.39453,-11.54295 -2.89063,-2.61719 -7.1875,-3.92578 -12.89063,-3.92578 z M 394.44968,8.0423014 h 55.3125 v 9.9609306 h -43.47656 v 25.89844 h 41.66016 v 9.96094 h -41.66016 v 31.69922 h 44.53125 v 9.960954 h -56.36719 z m -94.72265,0 h 12.71484 L 336.69968,44.018862 360.78171,8.0423014 h 12.71485 L 342.55906,53.862612 V 95.522786 H 330.66453 V 53.862612 Z M 247.02,6.0423004 h 11.83593 V 83.561832 h 42.59766 v 9.960944 H 247.02 Z m -75.17187,0 h 50.27344 v 9.9609316 h -38.4375 v 25.78125 h 34.6875 v 9.96094 h -34.6875 v 41.777354 h -11.83594 z"
      id="text-flyer"
      class="logo-text-flyer"
      style="filter:url(#offset)"
      sodipodi:nodetypes="cccccccsccccsssccccscscscccccccccccccccccccccccccccccccccccccccccc" />
   <g
      class="text-pk">
      <path
         d="m 20.578301,10.227036 0.008,34.091607 15.38548,-8.18e-4 q 8.54077,-4.39e-4 13.203879,-4.436868 4.663119,-4.436414 4.661296,-12.640278 -0.0018,-8.143093 -4.666903,-12.579005 -4.665092,-4.435912 -13.205852,-4.435456 z M 8.3403507,0.13997913 35.961551,0.13849913 q 15.203765,-8.136e-4 22.958624,6.92647827 7.815415,6.8665196 7.818373,20.1750076 0.003,13.43003 -7.809375,20.297382 -7.751792,6.867355 -22.955562,6.868171 l -15.38549,8.27e-4 0.008,36.461608 -12.2357003,6.88e-4 z m 74.8073933,-0.004 12.235704,-6.546e-4 0.0085,38.34546647 40.575242,-38.34763867 15.74892,-8.43e-4 -44.87503,42.29787567 48.10556,48.4306 -16.11236,8.72e-4 -43.440401,-43.690843 0.0097,43.693166 -12.235705,6.67e-4 z"
         id="text20"
         aria-label="PK" />
      <path
         d="m 20.578301,10.227036 0.008,34.091607 15.38548,-8.18e-4 q 8.54077,-4.39e-4 13.203879,-4.436868 4.663119,-4.436414 4.661296,-12.640278 -0.0018,-8.143093 -4.666903,-12.579005 -4.665092,-4.435912 -13.205852,-4.435456 z M 8.3403507,0.13997913 35.961551,0.13849913 q 15.203765,-8.136e-4 22.958624,6.92647827 7.815415,6.8665196 7.818373,20.1750076 0.003,13.43003 -7.809375,20.297382 -7.751792,6.867355 -22.955562,6.868171 l -15.38549,8.27e-4 0.008,36.461608 -12.2357003,6.88e-4 z m 74.8073933,-0.004 12.235704,-6.546e-4 0.0085,38.34546647 40.575242,-38.34763867 15.74892,-8.43e-4 -44.87503,42.29787567 48.10556,48.4306 -16.11236,8.72e-4 -43.440401,-43.690843 0.0097,43.693166 -12.235705,6.67e-4 z"
         id="text1"
         aria-label="PK" />
      <path
         d="m 18.526291,12.316417 0.008,34.091613 15.38549,-8.28e-4 q 8.54076,-4.39e-4 13.20388,-4.436871 4.66312,-4.43641 4.661295,-12.640277 -0.0018,-8.143091 -4.666905,-12.579007 -4.66509,-4.435911 -13.20585,-4.435455 z M 6.2883507,2.2293614 33.909541,2.2278614 q 15.203767,-8.11e-4 22.958626,6.92648 7.815414,6.8665186 7.818372,20.1750056 0.003,13.43003 -7.809374,20.297381 -7.751794,6.867356 -22.955554,6.868169 l -15.38549,8.27e-4 0.008,36.461612 -12.2357003,6.9e-4 z m 74.8073883,-0.004 12.235701,-6.58e-4 0.0085,38.3454626 40.57524,-38.3476366 15.74892,-8.4e-4 -44.87503,42.2978756 48.10556,48.430601 -16.11236,8.3e-4 -43.440398,-43.69084 0.0097,43.69317 -12.235703,6.9e-4 z"
         id="text6"
         aria-label="PK" />
      <path
         d="m 16.474281,14.405792 0.008,34.091612 15.3855,-8.27e-4 q 8.54076,-4.5e-4 13.20389,-4.43687 4.663108,-4.436413 4.661283,-12.640277 -0.0018,-8.143091 -4.666903,-12.579006 -4.66509,-4.435911 -13.20586,-4.435456 z M 4.2363507,4.3187364 31.857531,4.3172364 q 15.20376,-8.11e-4 22.958624,6.9264776 7.815414,6.866521 7.818372,20.175006 0.003,13.43003 -7.809374,20.297385 -7.751792,6.867352 -22.955562,6.868166 l -15.38548,8.17e-4 0.008,36.461618 -12.2356903,6.9e-4 z m 74.8073763,-0.004 12.235702,-6.58e-4 0.0085,38.3454616 40.575241,-38.3476336 15.74892,-8.4e-4 -44.87503,42.2978746 48.10556,48.430595 -16.11236,8.3e-4 -43.440399,-43.69083 0.0097,43.69315 -12.235703,6.9e-4 z"
         id="text7"
         aria-label="PK" />
      <path
         d="m 14.422271,16.495166 0.008,34.091608 15.38549,-8.17e-4 q 8.54077,-4.5e-4 13.20389,-4.43687 4.663113,-4.436412 4.66129,-12.640272 -0.0018,-8.143096 -4.66691,-12.579011 -4.66509,-4.435912 -13.20585,-4.435454 z M 2.1843307,6.4081114 29.805521,6.4066114 q 15.20377,-8.11e-4 22.958626,6.9264796 7.815418,6.866519 7.818375,20.175005 0.003,13.43003 -7.809378,20.297387 -7.751783,6.86735 -22.955553,6.868168 l -15.38549,8.18e-4 0.008,36.461617 -12.2357003,6.9e-4 z m 74.8073873,-0.004 12.235702,-6.58e-4 0.0085,38.3454656 40.57524,-38.3476376 15.74892,-8.4e-4 -44.87502,42.2978726 48.10556,48.430602 -16.11237,8.2e-4 -43.440397,-43.690827 0.0097,43.693167 -12.235701,6.8e-4 z"
         id="text8"
         aria-label="PK" />
      <path
         d="m 12.370271,18.584571 0.008,34.091608 15.38549,-8.17e-4 q 8.54076,-4.39e-4 13.20387,-4.436864 4.66312,-4.436414 4.66131,-12.640282 -0.002,-8.143093 -4.66692,-12.579006 -4.66509,-4.435916 -13.20584,-4.435455 z M 0.13232073,8.4975144 27.753511,8.4960144 q 15.20377,-8.11e-4 22.958627,6.9264776 7.815414,6.866517 7.818372,20.175007 0.003,13.43003 -7.809374,20.297383 -7.751795,6.867354 -22.955555,6.868167 l -15.3855,8.28e-4 0.008,36.461609 -12.23571027,6.9e-4 z m 74.80739027,-0.004 12.235699,-6.68e-4 0.0085,38.3454616 40.57524,-38.3476236 15.74892,-8.49e-4 -44.875027,42.2978766 48.105557,48.430604 -16.11236,8.3e-4 -43.440398,-43.690833 0.0097,43.693153 -12.235705,6.9e-4 z"
         id="text9"
         aria-label="PK" />
   </g>
   <sodipodi:namedview
      id="namedview1"
      pagecolor="#ffffff"
      bordercolor="#000000"
      borderopacity="0.25"
      inkscape:showpageshadow="2"
      inkscape:pageopacity="0.0"
      inkscape:pagecheckerboard="0"
      inkscape:deskcolor="#d1d1d1"
      inkscape:document-units="px"
      inkscape:zoom="0.25"
      inkscape:cx="706"
      inkscape:cy="-450"
      inkscape:window-width="2486"
      inkscape:window-height="1369"
      inkscape:window-x="74"
      inkscape:window-y="34"
      inkscape:window-maximized="1"
      inkscape:current-layer="svg1" />
   <defs
      id="defs1" />
   <g
      inkscape:label="Layer 1"
      inkscape:groupmode="layer"
      id="layer1">
      <filter
         id="offset"
         y="-0.038683654"
         width="1.0249401"
         height="1.0770279"
         x="-0.012053245">
         <feFlood
            flood-color="red"
            flood-opacity=".7"
            result="c1"
            id="feFlood1" />
         <feFlood
            flood-color="#0fa90f"
            flood-opacity=".7"
            result="c2"
            id="feFlood2" />
         <feFlood
            flood-color="#00f"
            flood-opacity=".7"
            result="c3"
            id="feFlood3" />
         <feComposite
            operator="in"
            in="c1"
            in2="SourceAlpha"
            result="text-c1"
            id="feComposite3" />
         <feComposite
            operator="in"
            in="c2"
            in2="SourceAlpha"
            result="text-c2"
            id="feComposite4" />
         <feComposite
            operator="in"
            in="c3"
            in2="SourceAlpha"
            result="text-c3"
            id="feComposite5" />
         <feOffset
            in="text-c1"
            dx="-4"
            dy="3"
            result="text1"
            id="feOffset5" />
         <feOffset
            in="text-c2"
            dx="0"
            dy="0"
            result="text2"
            id="feOffset6" />
         <feOffset
            in="text-c3"
            dx="4"
            dy="-3"
            result="text3"
            id="feOffset7" />
         <feMerge
            id="feMerge9">
            <feMergeNode
               in="text1"
               id="feMergeNode7" />
            <feMergeNode
               in="text2"
               id="feMergeNode8" />
            <feMergeNode
               in="text3"
               id="feMergeNode9" />
         </feMerge>
      </filter>
   </g>
</svg>